<svg xmlns="http://www.w3.org/2000/svg" viewBox="0 0 1200 750" width="1200" height="750" role="img" aria-hidden="true">
<defs><radialGradient id="g" cx="68%" cy="45%" r="70%"><stop offset="0" stop-color="#FF5500" stop-opacity=".34"/><stop offset="1" stop-color="#FF5500" stop-opacity="0"/></radialGradient></defs>
<rect width="1200" height="750" fill="#101516"/><rect width="1200" height="750" fill="url(#g)"/>
<path d="M550 70h500v260a250 250 0 0 1-500 0z" fill="#FF5500"/><circle cx="440" cy="150" r="52" fill="#FB4C7D"/><path d="M1060 470h110v40a55 55 0 0 1-110 0z" fill="#694AFF"/><circle cx="70" cy="610" r="17" fill="#FF5500" opacity=".9"/><path d="M115 593h34v17a17 17 0 0 1-34 0z" fill="#FB4C7D" opacity=".9"/><path d="M177 627v-17a17 17 0 0 1 34 0v17z" fill="#54E6D4" opacity=".9"/><circle cx="256" cy="610" r="17" fill="#694AFF" opacity=".9"/><path d="M301 593h34v17a17 17 0 0 1-34 0z" fill="#FF5500" opacity=".9"/><path d="M363 627v-17a17 17 0 0 1 34 0v17z" fill="#FB4C7D" opacity=".9"/><circle cx="442" cy="610" r="17" fill="#54E6D4" opacity=".9"/><path d="M487 593h34v17a17 17 0 0 1-34 0z" fill="#694AFF" opacity=".9"/><path d="M549 627v-17a17 17 0 0 1 34 0v17z" fill="#FF5500" opacity=".9"/><path d="M53 645h34v17a17 17 0 0 1-34 0z" fill="#FB4C7D" opacity=".9"/><path d="M115 679v-17a17 17 0 0 1 34 0v17z" fill="#54E6D4" opacity=".9"/><circle cx="194" cy="662" r="17" fill="#694AFF" opacity=".9"/><path d="M239 645h34v17a17 17 0 0 1-34 0z" fill="#FF5500" opacity=".9"/><path d="M301 679v-17a17 17 0 0 1 34 0v17z" fill="#FB4C7D" opacity=".9"/><circle cx="380" cy="662" r="17" fill="#54E6D4" opacity=".9"/><path d="M425 645h34v17a17 17 0 0 1-34 0z" fill="#694AFF" opacity=".9"/><path d="M487 679v-17a17 17 0 0 1 34 0v17z" fill="#FF5500" opacity=".9"/><circle cx="566" cy="662" r="17" fill="#FB4C7D" opacity=".9"/><path d="M53 731v-17a17 17 0 0 1 34 0v17z" fill="#54E6D4" opacity=".9"/><circle cx="132" cy="714" r="17" fill="#694AFF" opacity=".9"/><path d="M177 697h34v17a17 17 0 0 1-34 0z" fill="#FF5500" opacity=".9"/><path d="M239 731v-17a17 17 0 0 1 34 0v17z" fill="#FB4C7D" opacity=".9"/><circle cx="318" cy="714" r="17" fill="#54E6D4" opacity=".9"/><path d="M363 697h34v17a17 17 0 0 1-34 0z" fill="#694AFF" opacity=".9"/><path d="M425 731v-17a17 17 0 0 1 34 0v17z" fill="#FF5500" opacity=".9"/><circle cx="504" cy="714" r="17" fill="#FB4C7D" opacity=".9"/><path d="M549 697h34v17a17 17 0 0 1-34 0z" fill="#54E6D4" opacity=".9"/></svg>